<svg xmlns="http://www.w3.org/2000/svg" width="32" height="32" id="pin"><path fill="#f47a65" d="M19.605 21.444a6.505 6.505 0 0 0 .192-7.12l2.5-2.498a3.558 3.558 0 0 0 2.56-.068c.63-.265.746-1.12.263-1.603l-3.304-3.303c-.484-.484-1.34-.367-1.605.265a3.559 3.559 0 0 0-.053 2.604l-2.483 2.483a6.505 6.505 0 0 0-7.119.192c-.5.349-.542 1.084-.11 1.516l7.643 7.643c.432.43 1.166.39 1.516-.111z" class="st7"></path><path fill="#fff" d="M21.817 6.853c-.484-.484-1.341-.369-1.606.263a3.56 3.56 0 0 0-.053 2.605l-2.483 2.483a6.506 6.506 0 0 0-7.12.192c-.5.35-.54 1.083-.109 1.515l.99.99c-.433-.433-.393-1.167.108-1.516a6.503 6.503 0 0 1 7.118-.193l2.484-2.483a3.557 3.557 0 0 1 .054-2.604c.265-.632 1.12-.749 1.604-.265l-.987-.987z"></path><path fill="#e2e2e2" d="m13.219 16.66 2.121 2.121-8.839 6.717z" class="st0"></path><path fill="#444a54" d="M25.472 9.8 22.17 6.499a1.523 1.523 0 0 0-1.375-.416c-.479.094-.86.4-1.045.84a4.035 4.035 0 0 0-.162 2.662l-1.995 1.995a6.983 6.983 0 0 0-7.323.407 1.455 1.455 0 0 0-.616 1.07c-.04.45.12.89.438 1.209l2.454 2.454-6.444 8.479A.501.501 0 0 0 6.5 26a.505.505 0 0 0 .303-.102l8.48-6.444 2.453 2.454c.286.286.671.444 1.073.444.045 0 .09 0 .136-.01a1.454 1.454 0 0 0 1.07-.616 6.985 6.985 0 0 0 .407-7.323l2.014-2.014a4.027 4.027 0 0 0 2.615-.174c.44-.184.745-.564.84-1.043a1.524 1.524 0 0 0-.418-1.375zM9.117 22.883l4.143-5.451 1.308 1.308-5.45 4.143zm15.546-11.585a3.049 3.049 0 0 1-2.2.058.497.497 0 0 0-.52.118l-2.5 2.499a.5.5 0 0 0-.072.616 5.986 5.986 0 0 1-.177 6.57.456.456 0 0 1-.338.192.516.516 0 0 1-.414-.15l-2.71-2.71c-.017-.016-.021-.043-.04-.061l-2.12-2.121c-.018-.018-.042-.025-.063-.04l-2.71-2.71a.519.519 0 0 1-.149-.414.455.455 0 0 1 .191-.338 5.967 5.967 0 0 1 3.417-1.073 6 6 0 0 1 3.153.896.501.501 0 0 0 .616-.072l2.483-2.482a.5.5 0 0 0 .116-.526 3.045 3.045 0 0 1 .044-2.238.42.42 0 0 1 .316-.247.53.53 0 0 1 .475.142l3.303 3.303a.535.535 0 0 1 .143.475.412.412 0 0 1-.244.313z" class="st21"></path></svg>