<svg width="90" height="80" viewBox="0 0 90 80" fill="none" xmlns="http://www.w3.org/2000/svg">
<g id="unpin 1">
<rect width="89.1139" height="80" fill="white"/>
<g id="Group">
<path id="Vector" d="M77.9747 38.6667L63.865 30.3333L80.2026 15.6667C81.6878 14.3333 81.6878 12.3333 80.2026 11C78.7173 9.66667 76.4895 9.66667 75.0042 11L57.9241 26.6667L53.8397 24.3333C57.1815 19.3333 56.8102 12.3333 51.6118 8L20.0507 36.3333C24.8777 40.6667 32.6751 41.3333 38.2448 38.3333L40.8439 42L23.3924 57.6667C21.9072 59 21.9072 61 23.3924 62.3333C24.135 63 24.8777 63.3333 25.9916 63.3333C27.1055 63.3333 27.8481 63 28.5907 62.3333L44.9283 47.6667L54.211 60.3333C56.8102 64 62.3798 64.3333 65.7215 61.3333L79.0886 49.3333C82.4304 46 82.0591 41 77.9747 38.6667Z" fill="#D4C9D6"/>
<path id="Vector_2" d="M25.6203 42.3333L28.962 47C29.7047 48 30.8186 48.3333 31.9325 48.3333C32.6751 48.3333 33.4177 48 34.1604 47.6667C36.0169 46.6667 36.3882 44.6667 35.2743 43L31.9325 38.6667L43.4431 28.3333L48.2701 31.3333C50.1266 32.3333 52.3545 32 53.4684 30.3333C54.5823 28.6667 54.211 26.6667 52.3545 25.6667L47.1561 22.3333C49.384 16.3333 48.2701 9.66667 42.7004 5C41.2152 3.66667 38.9874 3.66667 37.5021 5L5.94095 33.3333C4.45572 34.6667 4.45572 36.6667 5.94095 38C9.65403 41.3333 14.481 43 18.9367 43C21.5359 43.3333 23.7637 43 25.6203 42.3333ZM40.1013 13C41.9578 16.6667 41.2152 21.3333 37.8734 24.3333L27.4768 33.6667C24.135 36.6667 18.9367 37.3333 14.8523 35.6667L40.1013 13ZM76.8608 17.6667C75.3756 16.3333 73.1477 16.3333 71.6625 17.6667L19.6793 64.3333C18.1941 65.6667 18.1941 67.6667 19.6793 69C20.422 69.6667 21.1646 70 22.2785 70C23.3924 70 24.135 69.6667 24.8777 69L37.1308 58L40.1013 62C41.9578 64.6667 44.9283 66 48.2701 66.3333C48.6414 66.3333 49.0127 66.3333 49.384 66.3333C52.3545 66.3333 55.3249 65.3333 57.1815 63.3333L61.2658 59.6667L69.0633 66.6667C69.8059 67.3333 70.9199 67.6667 71.6625 67.6667C72.4051 67.6667 73.519 67.3333 74.2616 66.6667C75.7469 65.3333 75.7469 63.3333 74.2616 62L66.4642 55L70.5485 51.3333C72.7764 49.3333 74.2616 46.3333 73.8903 43.3333C73.519 40.3333 71.6625 37.6667 69.0633 36L64.6076 33.3333L76.8608 22.3333C78.346 21 78.346 19 76.8608 17.6667ZM64.9789 41.6667C66.0929 42.3333 66.4642 43 66.4642 44C66.4642 45 66.0929 46 65.3502 46.6667L51.9831 58.6667C51.2405 59.3333 50.1266 59.6667 49.0127 59.6667C47.8988 59.6667 46.7848 59 46.4135 58.3333L42.7004 53.3333L59.4093 38.3333L64.9789 41.6667Z" fill="#FF0000"/>
</g>
</g>
</svg>
