<svg width="53" height="58" viewBox="0 0 53 58" fill="none" xmlns="http://www.w3.org/2000/svg">
<g id="Group 4">
<path id="Vector" d="M28.8874 57.7954C28.9042 57.7935 28.9173 57.7916 28.9323 57.7898L29.7655 57.7336C30.419 57.6905 31.0724 57.6474 31.7259 57.5988C32.2932 57.5576 32.853 57.5089 33.3904 57.4546C33.7723 57.4153 34.1543 57.3741 34.5363 57.331C35.2084 57.2561 35.9012 57.1794 36.5902 57.1251C36.785 57.1101 36.9797 57.097 37.1725 57.082C38.3764 56.9959 39.5148 56.9154 40.642 56.5746C41.771 56.2319 42.9412 55.9923 44.0441 55.7732C45.9389 55.3988 47.4611 54.9344 48.7287 53.8821C50.2359 52.6314 51.8124 51.0231 52.0746 48.5778C52.1588 47.7839 52.2581 46.9807 52.3554 46.2018C52.5801 44.3781 52.8141 42.4926 52.8741 40.6428C52.9789 37.4298 52.9714 34.1551 52.9658 30.9889C52.9639 29.6858 52.9602 28.3845 52.9658 27.0813C52.9658 26.9053 52.9508 26.7237 52.934 26.5346L52.919 26.3492L52.4415 17.6222C52.4191 17.2122 52.3985 16.8021 52.3779 16.3902C52.318 15.1994 52.2562 13.9674 52.1476 12.7653L52.1026 12.2598C51.9585 10.6252 51.8087 8.93263 51.1964 7.36361C50.0187 4.3435 47.7532 2.41499 44.2706 1.47319C43.7988 1.34587 43.3157 1.27098 42.8046 1.19047C42.5293 1.1474 42.2429 1.10434 41.962 1.05004C41.7673 1.01259 41.5688 0.860936 41.4789 0.679318C41.3273 0.374125 41.0708 0.226207 40.6925 0.226207C40.6607 0.226207 40.6251 0.226207 40.5914 0.226207C40.2301 0.226207 39.8668 0.218716 39.513 0.213099C39.1628 0.20561 38.8108 0.199997 38.457 0.199997C37.753 0.199997 37.049 0.226206 36.3712 0.331058C33.5514 0.765443 30.9545 1.04255 28.4287 1.17736C26.1987 1.29532 23.9331 1.44137 21.7425 1.58179C20.7333 1.64732 19.7222 1.71098 18.713 1.77277C18.2393 1.80273 17.7637 1.82332 17.2863 1.84392C16.2715 1.88886 15.223 1.93567 14.21 2.06673C13.0267 2.21839 11.8284 2.42996 10.6675 2.63592C9.83809 2.78196 8.97868 2.93362 8.1305 3.06282C4.779 3.5721 2.37115 5.94998 1.68774 9.42319C1.60536 9.84072 1.5417 10.2751 1.47991 10.6945C1.40689 11.1869 1.332 11.6962 1.22715 12.1961C0.80025 14.1996 0.667313 16.291 0.822718 18.5883C0.865782 19.2212 0.948166 19.869 1.0268 20.4963C1.11293 21.1647 1.20093 21.8556 1.24212 22.5465C1.31515 23.7317 1.36196 24.9375 1.40876 26.104C1.46493 27.5101 1.52298 28.9649 1.62408 30.3898C1.93115 34.7168 2.30187 39.113 2.66137 43.3652L2.68945 43.704C2.9703 47.0219 3.87652 49.7031 5.46427 51.9049C6.85356 53.8335 8.79519 55.0205 11.2349 55.4362C12.5624 55.6628 13.8224 55.9623 15.09 56.3536C19.6024 57.7504 24.1934 57.8309 28.893 57.7935L28.8874 57.7954ZM6.17202 48.6939C5.14972 46.3029 4.89695 43.8201 4.78274 41.7044C4.72282 40.596 4.60112 39.4669 4.48504 38.3754C4.37831 37.3905 4.26972 36.3701 4.20418 35.3627C4.04129 32.8332 3.90461 30.2606 3.77167 27.7741C3.68367 26.1096 3.5938 24.4451 3.49831 22.7805C3.4515 21.9717 3.35975 21.0861 3.21745 20.0731C2.85609 17.493 2.93473 14.941 3.44963 12.4882C3.55261 11.9977 3.6275 11.4865 3.70052 10.9922C3.75295 10.629 3.80912 10.2526 3.87465 9.88192C4.33338 7.33178 6.08215 5.58675 8.55553 5.21228C9.30259 5.09994 10.0628 4.95951 10.7986 4.82283C11.7423 4.6487 12.7196 4.46895 13.6914 4.34163C14.665 4.21431 15.6574 4.16002 16.6179 4.10947C17.0728 4.08512 17.5278 4.06078 17.9809 4.02708C19.1718 3.94283 20.3607 3.85856 21.5515 3.77618C25.0996 3.52716 28.7675 3.26878 32.3718 2.98792C33.0328 2.9355 33.7087 2.81005 34.3621 2.69022C34.789 2.61158 35.229 2.5292 35.669 2.46741C35.9873 2.4206 36.3712 2.51047 36.6202 2.69022C37.474 3.30061 38.2847 3.5178 39.1722 3.37363C39.3931 3.33805 39.6066 3.34367 39.8107 3.35116C39.9174 3.3549 40.0241 3.35865 40.1308 3.3549C40.2975 3.34929 40.4641 3.35303 40.6251 3.3549C40.979 3.36239 41.3142 3.36988 41.5838 3.27627C42.6267 2.91678 43.5086 3.23133 44.3624 3.53465C44.4653 3.5721 44.5702 3.60767 44.6732 3.64325C45.1806 3.81737 45.7554 4.01397 46.2459 4.33789C46.7103 4.64495 47.3862 5.1224 47.9086 5.73653C48.9496 6.95918 49.56 8.41587 49.7229 10.0673C49.8951 11.8029 50.0431 13.5704 50.1872 15.278C50.249 16.012 50.3108 16.746 50.3745 17.4818L50.4063 17.8563L50.52 19.56C50.6829 21.745 50.5692 23.9133 50.7302 26.0983L50.7527 26.4017C50.7845 26.808 50.8182 27.2292 50.8201 27.6505C50.8257 28.8357 50.8369 30.0209 50.8482 31.2042C50.8763 34.273 50.9062 37.4467 50.822 40.5679C50.777 42.1912 50.5692 43.8276 50.367 45.4098C50.2603 46.2411 50.1517 47.1024 50.0674 47.9468C49.8802 49.8173 48.7193 51.0212 47.4911 52.0454C46.3864 52.9647 45.0757 53.2886 43.8269 53.5414C43.7145 53.5639 43.6003 53.5844 43.4861 53.6032C43.2652 53.6406 43.0573 53.6762 42.8645 53.7361C40.3817 54.5019 37.8166 54.9101 35.2403 54.9513C34.9182 54.9569 34.5943 55.0018 34.2498 55.0524C34.0214 55.0842 33.7836 55.1179 33.5458 55.1404L33.1732 55.1722C32.046 55.2714 30.8796 55.3725 29.7299 55.4456C28.5578 55.5186 27.4176 55.556 26.3035 55.556C23.0812 55.556 20.0855 55.249 17.2151 54.6273C16.8163 54.5412 16.2958 54.4176 15.7903 54.2323C14.5807 53.7885 13.2851 53.474 11.7161 53.2418C9.17153 52.8636 7.30667 51.3339 6.17764 48.6939H6.17202Z" fill="black"/>
<path id="Vector_2" d="M19.7354 40.815L19.7691 40.8543C20.2503 41.4179 20.7446 41.6145 21.237 41.4348C21.7538 41.2475 21.9841 40.8731 22.087 40.0586L22.0926 40.008C22.19 39.2366 22.2911 38.439 22.63 37.7331C23.0007 36.9617 23.5138 36.2615 24.0099 35.5856C24.1017 35.462 24.1916 35.3384 24.2814 35.2148C24.6615 34.6887 25.0753 34.1794 25.4741 33.687C25.6276 33.4979 25.7812 33.3088 25.9328 33.1178C26.4346 32.4887 26.9364 31.8577 27.4382 31.2267C28.7245 29.609 30.052 27.937 31.387 26.3118C32.2558 25.2539 33.1957 24.2616 34.0832 23.346C34.3041 23.1176 34.5232 22.8891 34.7441 22.6588C35.9724 21.3744 37.2437 20.0469 38.7715 19.0078C39.1161 18.7737 39.4568 18.4348 39.8407 17.9443C40.2076 17.4762 40.144 16.819 39.6927 16.4483C39.2565 16.0888 38.6686 16.13 38.1574 16.5512C37.9852 16.6935 37.8185 16.8433 37.6519 16.9912C37.5152 17.1129 37.3785 17.2346 37.24 17.3526C36.9404 17.6091 36.6296 17.8619 36.3281 18.1053C35.7009 18.6164 35.0512 19.1444 34.482 19.7193C33.0627 21.1535 31.6716 22.6701 30.3272 24.1361L29.5933 24.9356C28.8912 25.6995 28.1628 26.4897 27.5412 27.3229C26.7548 28.377 25.9272 29.4274 25.1259 30.4441C23.4913 32.5168 21.8024 34.6606 20.3794 36.9468L20.1473 37.3212L19.8159 37.031C19.7691 36.9936 19.7129 36.9486 19.6623 36.8924C19.3066 36.4993 18.9546 36.1042 18.6026 35.7073C17.8068 34.8123 16.983 33.8873 16.1367 33.0186C15.4233 32.2846 14.5995 31.6405 13.8187 31.0526C13.7251 30.9833 13.5398 30.8691 13.3132 30.8691C13.1709 30.8691 13.0099 30.914 12.847 31.0432C12.6186 31.223 12.6092 31.5825 12.8245 31.9813C13.184 32.646 13.5847 33.2545 14.0153 33.7881C14.6501 34.5726 15.3316 35.344 15.9907 36.0911C17.2732 37.544 18.6007 39.0475 19.6717 40.7364C19.6885 40.7645 19.7129 40.7888 19.7354 40.8132V40.815Z" fill="black"/>
</g>
</svg>
