<svg width="59" height="64" viewBox="0 0 59 64" fill="none" xmlns="http://www.w3.org/2000/svg">
<g id="Group 3">
<path id="Vector" d="M57.9135 28.4646C56.9993 19.7114 53.1709 12.4462 46.5353 6.86949C40.6919 1.95865 33.9919 -0.207145 26.6218 0.428156C19.7505 1.02099 13.8443 3.90702 9.06435 9.00301C3.29893 15.1522 0.398408 22.8318 0.199951 32.4837C0.238964 32.8353 0.274584 33.2413 0.315294 33.7101C0.420459 34.9043 0.549371 36.3889 0.824157 37.848C2.35244 45.9575 6.18588 52.5075 12.2227 57.3181C18.4766 62.302 25.5854 64.2351 33.3524 63.063C40.3849 62.0014 46.2826 58.565 50.881 52.8489C56.5074 45.8538 58.8719 37.651 57.9118 28.4646H57.9135ZM51.1762 49.1594C47.0934 55.4377 41.5095 59.3735 34.5805 60.8548C32.8045 61.2353 31.0489 61.4238 29.3171 61.4238C24.3167 61.4238 19.5164 59.8424 14.9909 56.6964C8.78617 52.3818 4.74749 46.1851 2.98852 38.2812C2.46439 35.9286 2.25237 33.6404 2.25406 30.3824V30.379C2.43725 21.9791 5.77879 14.5848 11.9191 8.99622C17.6031 3.82549 24.1878 1.59004 31.4883 2.35444C38.8702 3.12564 44.9935 6.6045 49.692 12.6925C53.3473 17.4284 55.4744 22.9643 56.0138 29.1441C56.6549 36.5044 55.0283 43.2379 51.1779 49.1594H51.1762Z" fill="black"/>
<path id="Vector_2" d="M49.2352 33.4067C49.0835 33.3374 48.9131 33.2849 48.7444 33.2528C48.4019 33.1885 48.0593 33.1242 47.7185 33.0583C46.7864 32.879 45.8236 32.6946 44.871 32.5525C42.4632 32.1922 40.0962 31.5275 37.806 30.8847C36.4649 30.5075 35.0778 30.1184 33.7009 29.7954C32.9698 29.6245 32.2098 29.501 31.4754 29.3843L31.2572 29.3488C30.7137 29.2609 30.1581 29.1898 29.6196 29.1222L29.1493 29.0613C28.742 29.0088 28.5733 28.8025 28.587 28.3728C28.6228 27.2091 28.6364 26.025 28.65 24.8782C28.6551 24.4942 28.6585 24.1103 28.6637 23.7263C28.6671 23.5115 28.6671 23.295 28.6688 23.0801C28.6688 22.6573 28.6722 22.2192 28.6909 21.7878C28.7165 21.206 28.7574 20.6173 28.7966 20.0473C28.8136 19.8054 28.8307 19.5652 28.846 19.3233C28.8102 18.8988 28.7761 18.4742 28.742 18.0513C28.6568 16.9772 28.5682 15.8659 28.4421 14.7817C28.3893 14.3216 28.1831 13.8513 27.9769 13.4099C27.8696 13.1815 27.6838 13.0563 27.4623 13.0563C27.4061 13.0563 27.3481 13.0648 27.2885 13.08C27.1845 13.1088 26.8659 13.1933 26.8642 13.7346C26.8608 14.3131 26.8642 14.8899 26.8693 15.4667C26.8744 16.0757 26.8778 16.7066 26.8744 17.3274C26.8659 18.4928 26.8454 19.7225 26.8079 21.1975C26.7977 21.6238 26.7773 22.0568 26.7568 22.4746C26.7364 22.9008 26.7159 23.3406 26.7057 23.772C26.6921 24.3437 26.6852 24.9154 26.6767 25.4871C26.6614 26.5866 26.646 27.7233 26.5864 28.8397C26.5574 29.359 26.6784 29.6736 27.0312 29.9967C27.9122 30.8069 29.0369 31.2771 30.4666 31.4361C31.8997 31.5951 33.2902 31.9859 34.6364 32.3631C35.3129 32.5525 36.0116 32.7487 36.7052 32.9128C37.6253 33.1293 38.549 33.3898 39.4436 33.6401C40.3638 33.8989 41.3129 34.1662 42.257 34.3861C43.4754 34.6703 44.733 34.8834 45.9497 35.0898C46.3263 35.154 46.7046 35.2183 47.0812 35.2843C47.6299 35.3807 48.2178 35.472 48.8057 35.4957C49.3527 35.516 49.806 35.1659 49.91 34.6415C50.0139 34.1222 49.7481 33.6351 49.2334 33.4033L49.2352 33.4067Z" fill="black"/>
</g>
</svg>
