<svg width="18" height="19" viewBox="0 0 18 19" fill="none" xmlns="http://www.w3.org/2000/svg">
<g id="delete_sweep">
<mask id="mask0_3_57" style="mask-type:alpha" maskUnits="userSpaceOnUse" x="0" y="0" width="18" height="19">
<rect id="Bounding box" width="18" height="19" fill="#D9D9D9"/>
</mask>
<g mask="url(#mask0_3_57)">
<path id="delete_sweep_2" d="M11.25 14.25V12.6667H14.25V14.25H11.25ZM11.25 7.91667V6.33333H16.5V7.91667H11.25ZM11.25 11.0833V9.5H15.75V11.0833H11.25ZM2.25 6.33333H1.5V4.75H4.5V3.5625H7.5V4.75H10.5V6.33333H9.75V13.4583C9.75 13.8937 9.60313 14.2665 9.30938 14.5766C9.01563 14.8866 8.6625 15.0417 8.25 15.0417H3.75C3.3375 15.0417 2.98438 14.8866 2.69062 14.5766C2.39687 14.2665 2.25 13.8937 2.25 13.4583V6.33333ZM3.75 6.33333V13.4583H8.25V6.33333H3.75Z" fill="white"/>
</g>
</g>
</svg>
