<svg width="19" height="18" viewBox="0 0 19 18" fill="none" xmlns="http://www.w3.org/2000/svg">
<g id="ink_highlighter_move">
<mask id="mask0_3_64" style="mask-type:alpha" maskUnits="userSpaceOnUse" x="0" y="0" width="19" height="18">
<rect id="Bounding box" x="0.965965" width="18" height="18" fill="#D9D9D9"/>
</mask>
<g mask="url(#mask0_3_64)">
<path id="ink_highlighter_move_2" d="M11.2972 3H6.21597V1.5H12.7972L11.2972 3ZM8.29722 6H3.96597V4.5H9.79722L8.29722 6ZM5.29722 9H1.71597V7.5H6.79722L5.29722 9ZM11.916 10.5L9.96597 8.55L6.21597 12.3L8.16597 14.25L11.916 10.5ZM11.0347 7.48125L12.9847 9.43125L16.716 5.7L14.766 3.75L11.0347 7.48125ZM9.45971 6.95625L13.5097 11.0063L9.21597 15.3C8.91597 15.6 8.56597 15.75 8.16597 15.75C7.76597 15.75 7.41597 15.6 7.11597 15.3L7.07847 15.2625L6.59097 15.75H2.84097L5.20347 13.3875L5.16597 13.35C4.86597 13.05 4.71597 12.7 4.71597 12.3C4.71597 11.9 4.86597 11.55 5.16597 11.25L9.45971 6.95625ZM9.45971 6.95625L13.716 2.7C14.016 2.4 14.366 2.25 14.766 2.25C15.166 2.25 15.516 2.4 15.816 2.7L17.766 4.65C18.066 4.95 18.216 5.3 18.216 5.7C18.216 6.1 18.066 6.45 17.766 6.75L13.5097 11.0063L9.45971 6.95625Z" fill="white"/>
</g>
</g>
</svg>
