<svg width="48" height="48" viewBox="0 0 48 48" fill="none" xmlns="http://www.w3.org/2000/svg">
<g id="Frame">
<path id="Vector" d="M4 12C4 10.9391 4.42143 9.92172 5.17157 9.17157C5.92172 8.42143 6.93913 8 8 8H40C41.0609 8 42.0783 8.42143 42.8284 9.17157C43.5786 9.92172 44 10.9391 44 12V36C44 37.0609 43.5786 38.0783 42.8284 38.8284C42.0783 39.5786 41.0609 40 40 40H8C6.93913 40 5.92172 39.5786 5.17157 38.8284C4.42143 38.0783 4 37.0609 4 36V12ZM11.038 12L24 23.342L36.962 12H11.038ZM40 14.658L25.318 27.506C24.9533 27.8256 24.4849 28.0017 24 28.0017C23.5151 28.0017 23.0467 27.8256 22.682 27.506L8 14.658V36H40V14.658Z" fill="white"/>
</g>
</svg>
