<svg width="49" height="48" viewBox="0 0 49 48" fill="none" xmlns="http://www.w3.org/2000/svg">
<g id="Frame">
<path id="Vector" d="M33.6537 6.49969C35.9724 6.50661 38.1942 7.43077 39.8337 9.07034C41.4733 10.7099 42.3974 12.9316 42.4044 15.2503V32.7497C42.3974 35.0684 41.4733 37.2901 39.8337 38.9297C38.1942 40.5692 35.9724 41.4934 33.6537 41.5003H16.1544C13.8357 41.4934 11.614 40.5692 9.97439 38.9297C8.33483 37.2901 7.41066 35.0684 7.40374 32.7497V15.2503C7.41066 12.9316 8.33483 10.7099 9.97439 9.07034C11.614 7.43077 13.8357 6.50661 16.1544 6.49969H33.6537ZM33.6537 3H16.1544C9.41655 3 3.90405 8.5125 3.90405 15.2503V32.7497C3.90405 39.4875 9.41655 45 16.1544 45H33.6537C40.3916 45 45.9041 39.4875 45.9041 32.7497V15.2503C45.9041 8.5125 40.3916 3 33.6537 3Z" fill="white"/>
<path id="Vector_2" d="M36.2787 15.2503C35.7596 15.2503 35.2521 15.0964 34.8204 14.8079C34.3887 14.5195 34.0522 14.1095 33.8536 13.6298C33.6549 13.1502 33.6029 12.6224 33.7042 12.1132C33.8055 11.604 34.0555 11.1363 34.4226 10.7692C34.7897 10.402 35.2574 10.152 35.7666 10.0507C36.2758 9.94946 36.8036 10.0014 37.2833 10.2001C37.7629 10.3988 38.1729 10.7353 38.4614 11.1669C38.7498 11.5986 38.9037 12.1061 38.9037 12.6253C38.9045 12.9702 38.8371 13.3119 38.7054 13.6307C38.5738 13.9495 38.3805 14.2392 38.1366 14.4831C37.8927 14.727 37.603 14.9203 37.2842 15.052C36.9654 15.1837 36.6237 15.251 36.2787 15.2503Z" fill="white"/>
<path id="Vector_3" d="M24.9041 16.9997C26.2886 16.9997 27.642 17.4102 28.7932 18.1795C29.9444 18.9487 30.8417 20.042 31.3715 21.3211C31.9013 22.6002 32.04 24.0078 31.7699 25.3657C31.4998 26.7236 30.833 27.971 29.854 28.95C28.875 29.929 27.6277 30.5957 26.2697 30.8658C24.9118 31.1359 23.5043 30.9973 22.2252 30.4674C20.946 29.9376 19.8527 29.0404 19.0835 27.8892C18.3143 26.738 17.9037 25.3845 17.9037 24C17.9057 22.144 18.6439 20.3646 19.9563 19.0522C21.2687 17.7398 23.0481 17.0017 24.9041 16.9997ZM24.9041 13.5C22.8274 13.5 20.7973 14.1158 19.0706 15.2696C17.3439 16.4233 15.998 18.0632 15.2033 19.9818C14.4086 21.9004 14.2007 24.0116 14.6058 26.0484C15.011 28.0852 16.011 29.9562 17.4794 31.4246C18.9479 32.8931 20.8188 33.8931 22.8556 34.2982C24.8924 34.7034 27.0036 34.4955 28.9222 33.7007C30.8409 32.906 32.4807 31.5602 33.6345 29.8335C34.7882 28.1068 35.4041 26.0767 35.4041 24C35.4041 21.2152 34.2978 18.5445 32.3287 16.5754C30.3595 14.6062 27.6888 13.5 24.9041 13.5Z" fill="white"/>
</g>
</svg>
