<svg width="48" height="48" viewBox="0 0 48 48" fill="none" xmlns="http://www.w3.org/2000/svg">
<g id="Frame" clip-path="url(#clip0_76_122)">
<path id="Vector" d="M36 8H12C9.79086 8 8 9.79086 8 12V36C8 38.2091 9.79086 40 12 40H36C38.2091 40 40 38.2091 40 36V12C40 9.79086 38.2091 8 36 8Z" stroke="white" stroke-width="2" stroke-linecap="round" stroke-linejoin="round"/>
<path id="Vector_2" d="M16 22V32" stroke="white" stroke-width="2" stroke-linecap="round" stroke-linejoin="round"/>
<path id="Vector_3" d="M16 16V16.02" stroke="white" stroke-width="2" stroke-linecap="round" stroke-linejoin="round"/>
<path id="Vector_4" d="M24 32V22" stroke="white" stroke-width="2" stroke-linecap="round" stroke-linejoin="round"/>
<path id="Vector_5" d="M32 32V26C32 24.9391 31.5786 23.9217 30.8284 23.1716C30.0783 22.4214 29.0609 22 28 22C26.9391 22 25.9217 22.4214 25.1716 23.1716C24.4214 23.9217 24 24.9391 24 26" stroke="white" stroke-width="2" stroke-linecap="round" stroke-linejoin="round"/>
</g>
<defs>
<clipPath id="clip0_76_122">
<rect width="48" height="48" fill="white"/>
</clipPath>
</defs>
</svg>
