<svg width="68" height="82" viewBox="0 0 68 82" fill="none" xmlns="http://www.w3.org/2000/svg">
<g id="Group">
<path id="Vector" d="M67.7674 8.11808C67.7674 9.38544 67.125 10.7917 66.5347 12.0243C64.7118 15.8959 62.7674 19.75 59.8854 22.9618C55.1806 28.2396 51.7778 34.4375 47.2986 39.8716C42.8194 45.3056 38.6701 51.0174 34.3993 56.6077C32.3854 59.2466 30.3715 61.8681 28.3924 64.5417C26.3438 67.3195 23.5486 69.2466 20.7535 71.1389C15.0243 75.0278 8.86111 78.1354 2.66319 81.1563C2.47222 81.2431 2.26389 81.2952 2.09028 81.382C1.5 81.6945 0.874999 81.8507 0.406249 81.2257C-0.0625007 80.6007 0.354166 80.0972 0.701388 79.5417C1.03125 79.0382 4.15625 68.8993 5.70139 64.4722C6.86458 61.1563 8.25347 57.9271 9.81597 54.7847C10.5799 53.2222 11.934 51.9375 13.0278 50.5313C20.7535 40.6181 28.4618 30.6875 36.2569 20.8264C38.0104 18.6042 40.0938 16.6597 41.9688 14.5417C42.75 13.6736 43.375 12.6841 44.1215 11.7813C47.0556 8.27433 50.3194 5.07989 54 2.37155C56.8819 0.236138 60.0069 -0.371501 63.3229 1.26044C66.1701 2.63197 67.7153 4.81947 67.7674 8.11808ZM46.1181 14.0903C36.3264 26.3299 26.5521 38.5347 16.6389 50.9306C17.316 50.9306 17.7153 50.9653 18.0972 50.9132C18.566 50.8438 19.0347 50.6528 19.5035 50.6007C21.5 50.3924 22.5069 51.5903 21.934 53.5C21.691 54.3507 21.309 55.1667 20.9965 56C20.5799 57.059 20.1632 58.1007 19.7118 59.2639C20.0764 59.2118 20.2326 59.2292 20.3194 59.1597C21.0313 58.6215 21.7257 58.0486 22.4375 57.4931C23.1493 56.9549 23.8437 56.382 24.6076 55.8959C25.3542 55.4097 26.1701 55.3056 26.9167 55.8959C27.5937 56.4341 27.6285 57.1632 27.4375 57.9618C27.2813 58.5868 27.2292 59.2292 27.1424 59.8542C37.1597 47.0938 47.4896 34.7327 56.8125 21.6424C53.2188 19.125 49.6771 16.625 46.1181 14.0903ZM24.625 60.8611C23.0625 61.8507 21.7257 62.8056 20.2847 63.6042C19.2257 64.1945 17.9931 64.4549 16.9861 63.5695C15.9271 62.632 16.2917 61.434 16.7604 60.3056C17.0729 59.5417 17.4028 58.7778 17.75 58.0313C18.2708 56.9028 18.8438 55.8091 19.3472 54.6806C19.5208 54.2986 19.5729 53.8646 19.7118 53.3438C17.0208 54.4202 14.5382 55.3924 12.0729 56.382C10.875 60.2709 9.69445 64.1424 8.54861 67.875C10.1458 69.3854 11.5694 70.7396 13.0278 72.1111C16.2396 70.2014 19.3819 68.3438 22.5417 66.4861C22.7153 66.382 22.9063 66.2778 23.0972 66.191C24.1389 65.6702 24.5208 64.7153 24.625 63.6736C24.7118 62.7709 24.625 61.8681 24.625 60.8611ZM62.7847 13.691C63.375 12.0243 63.9826 10.6528 64.3472 9.19447C64.6597 7.97919 64.5729 6.71183 63.7396 5.63544C62.5417 4.0903 60.9618 3.20489 59.0521 2.8403C57.3681 2.5278 54.8333 4.90628 54.5382 5.09725C57.2986 7.96183 59.8681 10.6354 62.7847 13.691ZM51.1701 8.55211C54.2431 11.5035 57.125 14.2292 60.0938 17.0764C60.5104 16.4688 60.8403 16 61.3438 15.2535C58.3924 12.5799 55.5104 9.95836 52.4722 7.19794C52.1944 7.49308 51.7257 7.97919 51.1701 8.55211ZM47.7847 11.8681C51.4306 14.4202 54.8854 16.8507 58.3403 19.2813C58.4097 19.2118 58.4618 19.1424 58.5313 19.0729C55.4757 16.2257 52.4201 13.3785 49.2257 10.4097C48.6875 10.9479 48.2014 11.4341 47.7847 11.8681Z" fill="black"/>
</g>
</svg>
