<svg width="123" height="126" viewBox="0 0 123 126" fill="none" xmlns="http://www.w3.org/2000/svg">
<g id="Push pin">
<g id="Ellipse 1" filter="url(#filter0_f_47_91)">
<ellipse cx="62.0235" cy="92.9772" rx="8.18089" ry="36.0469" transform="rotate(90.0945 62.0235 92.9772)" fill="#393939" fill-opacity="0.1"/>
</g>
<g id="Rectangle 1">
<path d="M51.7598 33.056L71.9601 53.2563L57.7806 76.641L28.3751 47.2355L51.7598 33.056Z" fill="#F24822"/>
<path d="M51.7598 33.056L71.9601 53.2563L57.7806 76.641L28.3751 47.2355L51.7598 33.056Z" fill="url(#paint0_linear_47_91)"/>
</g>
<g id="Rectangle 1_2">
<path d="M28.375 47.2354L57.7805 76.6409L55.6254 92.6168C54.94 97.6978 48.7314 99.7943 45.1061 96.169L8.84697 59.9099C5.22163 56.2846 7.31813 50.0759 12.3991 49.3905L28.375 47.2354Z" fill="#F24822"/>
<path d="M28.375 47.2354L57.7805 76.6409L55.6254 92.6168C54.94 97.6978 48.7314 99.7943 45.1061 96.169L8.84697 59.9099C5.22163 56.2846 7.31813 50.0759 12.3991 49.3905L28.375 47.2354Z" fill="url(#paint1_linear_47_91)"/>
</g>
<g id="Rectangle 1_3">
<path d="M53.1611 13.5254C53.541 8.23162 59.9673 5.8356 63.7202 9.5885L95.4275 41.2958C99.1804 45.0487 96.7844 51.475 91.4906 51.8548L71.9599 53.2564L51.7596 33.0561L53.1611 13.5254Z" fill="#F24822"/>
<path d="M53.1611 13.5254C53.541 8.23162 59.9673 5.8356 63.7202 9.5885L95.4275 41.2958C99.1804 45.0487 96.7844 51.475 91.4906 51.8548L71.9599 53.2564L51.7596 33.0561L53.1611 13.5254Z" fill="url(#paint2_linear_47_91)"/>
</g>
<g id="Vector 1 (Stroke)">
<path fill-rule="evenodd" clip-rule="evenodd" d="M6.44877 89.3618L22.3738 73.4368L31.579 82.642L23.8403 90.3807C23.8403 90.3807 21.424 92.7162 14.8163 93.1798C8.20863 93.6435 6.44877 89.3618 6.44877 89.3618Z" fill="#8F8F8F"/>
<path fill-rule="evenodd" clip-rule="evenodd" d="M6.44877 89.3618L22.3738 73.4368L31.579 82.642L23.8403 90.3807C23.8403 90.3807 21.424 92.7162 14.8163 93.1798C8.20863 93.6435 6.44877 89.3618 6.44877 89.3618Z" fill="url(#paint3_linear_47_91)"/>
</g>
</g>
<defs>
<filter id="filter0_f_47_91" x="1.19797" y="60.0174" width="121.651" height="65.9196" filterUnits="userSpaceOnUse" color-interpolation-filters="sRGB">
<feFlood flood-opacity="0" result="BackgroundImageFix"/>
<feBlend mode="normal" in="SourceGraphic" in2="BackgroundImageFix" result="shape"/>
<feGaussianBlur stdDeviation="12.3894" result="effect1_foregroundBlur_47_91"/>
</filter>
<linearGradient id="paint0_linear_47_91" x1="31.1293" y1="31.2076" x2="48.3645" y2="50.7349" gradientUnits="userSpaceOnUse">
<stop stop-color="white"/>
<stop offset="1" stop-color="white" stop-opacity="0"/>
</linearGradient>
<linearGradient id="paint1_linear_47_91" x1="-9.14037" y1="5.70904" x2="36.054" y2="93.7369" gradientUnits="userSpaceOnUse">
<stop stop-color="white"/>
<stop offset="1" stop-color="white" stop-opacity="0"/>
</linearGradient>
<linearGradient id="paint2_linear_47_91" x1="28.2097" y1="9.50614" x2="66.9143" y2="41.9659" gradientUnits="userSpaceOnUse">
<stop stop-color="white"/>
<stop offset="1" stop-color="white" stop-opacity="0"/>
</linearGradient>
<linearGradient id="paint3_linear_47_91" x1="16.1549" y1="73.5006" x2="27.2848" y2="83.6188" gradientUnits="userSpaceOnUse">
<stop stop-color="white"/>
<stop offset="1" stop-color="white" stop-opacity="0"/>
</linearGradient>
</defs>
</svg>
