<svg width="76" height="66" viewBox="0 0 76 66" fill="none" xmlns="http://www.w3.org/2000/svg">
<g id="Group">
<path id="Vector" d="M45.6667 17.5973C44.4028 15.7917 43.0001 13.9584 41.8056 11.9862C41.3473 11.2362 40.9723 9.9584 41.3195 9.3334C41.6806 8.69451 42.9723 8.22229 43.8195 8.27784C46.7917 8.4584 49.7501 8.81951 52.6945 9.29173C53.8473 9.47229 54.5278 9.13895 55.3195 8.41673C57.9584 5.97229 60.6112 3.54173 63.3473 1.23618C64.0139 0.666731 65.3751 0.0972864 65.9028 0.402842C66.5973 0.80562 67.1251 2.06951 67.1251 2.97229C67.1251 5.44451 66.8889 7.93062 66.6251 10.4028C66.5001 11.5417 66.2501 11.8473 67.9584 12.2917C69.8751 12.7917 71.8195 13.2223 73.6806 13.9028C74.3334 14.139 75.139 14.9445 75.2084 15.5695C75.2917 16.1945 74.7223 17.264 74.1528 17.5695C71.8195 18.8056 69.4028 19.8751 66.9584 20.8751C66.0278 21.2501 65.5556 21.6251 65.4167 22.6806C64.8751 27.1251 64.2223 31.5417 63.5973 35.9723C63.5417 36.3612 63.2223 39.1806 61.5834 39.1667C60.8751 39.1667 60.2084 39.1667 59.2084 37.8751C56.6251 34.2917 54.1528 30.6251 51.7362 26.9306C51.0973 25.9584 50.5417 25.6112 49.3612 25.9167C46.6945 26.6251 44.0001 27.2223 41.2917 27.7501C40.6251 27.8751 39.5695 28.3473 39.1528 27.4028C38.8056 26.7778 39.3612 26.014 39.7362 25.5001C41.6251 22.8751 43.6112 20.3056 45.6667 17.5973ZM63.1945 14.2501C60.4862 13.7362 58.0001 13.2223 55.5001 12.8056C55.139 12.7362 54.6112 12.9167 54.3334 13.1667C52.5973 14.764 50.9028 16.4306 49.1528 18.1112C50.0417 19.4445 50.7501 20.6251 51.5973 21.7084C51.8473 22.0417 52.5278 22.3195 52.9167 22.2223C55.9028 21.4306 58.8612 20.5695 61.8056 19.6528C62.1806 19.5417 62.6528 19.0556 62.7223 18.6945C62.9584 17.2917 63.0417 15.8612 63.1945 14.2501ZM60.6945 34.9445C61.2501 30.5278 61.7501 26.5973 62.2778 22.5001C59.3334 23.3612 56.6112 24.1528 53.6528 25.014C56.0139 28.3473 58.2223 31.4584 60.6945 34.9445ZM64.3195 3.81951C61.8889 6.05562 59.8056 7.97229 57.4723 10.1112C59.6806 10.5278 61.5417 10.889 63.5556 11.264C63.8056 8.80562 64.0278 6.54173 64.3195 3.81951ZM51.4584 11.9584C48.9167 11.6251 46.7778 11.3334 44.1528 10.9862C45.4862 12.8195 46.5417 14.2501 47.6112 15.7084C48.8751 14.4862 50.014 13.3751 51.4584 11.9584ZM71.0556 15.8612C69.4862 15.5417 67.9167 15.2223 66.2501 14.889C66.1251 16.1251 66.0278 17.1251 65.9028 18.4028C67.8612 17.5973 71.0834 15.9862 71.0556 15.8612ZM43.9584 23.9445C44.0278 24.0556 47.4167 23.5278 49.2084 23.1251C48.5139 22.0695 47.9584 21.2223 47.3056 20.2501C46.0834 21.6112 45.0278 22.7778 43.9584 23.9445Z" fill="black"/>
<path id="Vector_2" d="M25.5278 53.6809C23.7917 52.792 22.0556 51.9587 20.375 51.0142C18.2639 49.8475 18.1945 48.1531 20.3472 47.0559C22.5972 45.9031 24.9722 44.917 27.3889 44.1948C28.6111 43.8198 29.8611 43.1392 29.8611 43.1392C29.8611 43.1392 30.5972 41.5836 30.7917 41.0559C31.5972 38.8892 32.6528 36.8059 33.6806 34.7364C34.8056 32.4587 36.5556 32.3337 37.8889 34.5281C38.9722 36.3059 39.7917 38.2503 40.8056 40.2642C43.1806 39.8475 45.6667 39.4309 48.1528 38.9725C49.3334 38.7642 50.7778 38.4864 51.1945 39.792C51.4722 40.667 51.0556 42.1114 50.4306 42.8753C48.9861 44.6809 47.3056 46.3059 45.5833 47.8475C44.5278 48.792 44.2778 49.5559 44.8334 50.9309C45.9306 53.6948 46.8334 56.5559 47.6389 59.417C47.8611 60.1948 47.7222 61.4725 47.2222 61.9448C46.7083 62.417 45.4167 62.4864 44.6528 62.2087C41.6528 61.1114 38.6806 59.8753 35.7778 58.5142C34.5556 57.9448 33.8195 58.1253 32.8611 58.9725C30.5 61.0559 28.0972 63.0975 25.5972 65.0142C24.9722 65.4864 23.9861 65.9031 23.0833 65.6114C22.2778 65.4586 22.4722 63.9448 22.6528 63.2364C23.4861 60.0837 24.5 57.0003 25.5278 53.6809ZM28.9167 52.4448C30.3889 53.1253 31.6528 53.792 32.9861 54.3059C33.3889 54.4586 34.0972 54.3475 34.4445 54.0837C36.2778 52.6531 38.0556 51.167 39.7917 49.6253C40.1111 49.3475 40.5139 49.1114 40.25 48.2781C39.8195 46.8753 39.2083 45.5142 38.6111 44.0003C36.3195 44.6253 34.1389 45.1948 32 45.8614C31.6111 45.9864 31.4583 45.917 31.0556 46.8753C30.2917 48.6253 29.6667 50.4586 28.9167 52.4448ZM36.5278 55.9309C39.1111 56.9309 41.4167 57.8198 44.0972 58.8475C43.1667 56.1809 42.3889 53.9864 41.5417 51.5837C39.8472 53.0559 38.3195 54.3753 36.5278 55.9309ZM32.7639 42.4031C34.5556 41.917 35.9583 41.5281 37.5417 41.0975C36.9028 39.5003 36.3472 38.0837 35.5972 36.2225C34.5556 38.5003 33.7361 40.2781 32.7639 42.4031ZM26.0695 60.5975C26.1528 60.6531 29.6528 58.0281 31.4584 56.5559C30.2222 55.9586 29.2083 55.4587 28.0556 54.9031C27.3611 56.917 26.7083 58.7642 26.0695 60.5975ZM43.0556 46.1114C44.4167 44.792 45.7917 43.4448 47.2083 42.0837C45.4861 42.4587 43.75 42.8475 41.8611 43.2503C42.3195 44.3614 42.7222 45.3059 43.0556 46.1114ZM28.2222 46.9309C26.0417 47.7503 24.3472 48.3753 22.2778 49.1531C23.9028 49.9725 25.1528 50.6114 26.5278 51.292C27.0695 49.9031 27.5556 48.6392 28.2222 46.9309Z" fill="black"/>
<path id="Vector_3" d="M21.0416 10.6526C23.5 9.8054 25.875 8.90262 28.2916 8.1804C29 7.97206 30.2222 7.97206 30.5139 8.34706C31.1666 9.1804 30.9166 10.1248 30.5416 10.7082C28.7778 13.4998 26.8889 16.2221 24.9166 18.8748C24.1111 19.9443 23.8055 20.8332 24.25 22.1804C25.0278 24.4721 25.6528 26.8332 26.1389 29.2082C26.3055 30.0137 26.1528 31.2915 25.625 31.736C25.1111 32.1665 23.8333 32.0554 23.0694 31.7498C21.2222 31.0415 19.4305 30.1387 17.6944 29.1943C16.5694 28.5832 15.8194 28.7082 14.8055 29.5693C13.0416 31.0554 11.1111 32.3748 9.15275 33.611C7.47219 34.6665 6.37497 34.1943 6.51386 32.361C6.61108 31.3054 6.65275 30.1804 6.86108 29.111C7.0833 27.9165 7.7083 25.361 7.68053 25.111C5.99997 24.486 4.2083 23.9304 2.51386 23.1665C1.79164 22.8332 0.819415 22.0693 0.805526 21.4721C0.777749 20.736 1.44442 19.6665 2.12497 19.2637C4.49997 17.8748 10.9166 14.8748 10.9166 14.8748C11.5416 13.1943 12.3194 10.236 12.8889 8.54151C13.4861 6.79151 14.0833 5.04151 14.7222 3.31928C14.9722 2.65262 15.7083 1.74984 16.25 1.72206C16.8333 1.69428 17.7361 2.44428 18.0278 3.06928C19.1111 5.48595 20 7.98595 21.0416 10.6526ZM10.9166 23.611C12.3333 24.1943 13.5416 24.7221 14.7777 25.1804C15.0972 25.2915 15.6389 25.3471 15.8194 25.1665C17.3333 23.6387 18.8055 22.0554 20.25 20.4721C20.375 20.3471 20.3889 20.0276 20.3333 19.8332C19.8194 18.0554 19.2916 16.2915 18.75 14.4721C16.8611 15.2637 15.2222 15.9165 13.625 16.6526C13.1666 16.861 12.625 17.2776 12.4861 17.7082C11.9028 19.5971 11.4583 21.5276 10.9166 23.611ZM22.9166 17.4582C24.6944 15.1804 27.5694 10.9998 27.4583 10.8887C25.5555 11.6804 23.6389 12.4582 21.6666 13.2776C22.0694 14.6248 22.4305 15.8332 22.9166 17.4582ZM13.6389 13.6387C15.3055 12.9304 16.6111 12.3887 18.0139 11.7915C17.4166 9.88873 16.8611 8.08318 16.1666 5.87484C15.2777 8.61095 14.5139 10.9443 13.6389 13.6387ZM17.9861 26.6387C19.75 27.4304 21.3055 28.1248 23.1389 28.9582C22.5 26.8887 21.9722 25.1804 21.3889 23.3332C20.1944 24.486 19.1944 25.4582 17.9861 26.6387ZM9.66664 18.3193C7.66664 19.3054 6.04164 20.111 3.99997 21.111C5.80553 21.7498 7.12497 22.2082 8.49997 22.6804C8.87497 21.2498 9.2083 20.0276 9.66664 18.3193ZM8.98608 30.3471C9.12497 30.4443 12.0694 28.5554 13.6111 27.3471C12.3055 26.8332 11.3611 26.4721 10.2777 26.0554C9.81942 27.5971 9.40275 28.9721 8.98608 30.3471Z" fill="black"/>
</g>
</svg>
