<svg width="48" height="43" viewBox="0 0 48 43" fill="none" xmlns="http://www.w3.org/2000/svg">
<g id="stylus_note">
<mask id="mask0_1_16" style="mask-type:alpha" maskUnits="userSpaceOnUse" x="0" y="0" width="48" height="43">
<rect id="Bounding box" width="48" height="43" fill="#D9D9D9"/>
</mask>
<g mask="url(#mask0_1_16)">
<path id="stylus_note_2" d="M24.95 30.1448L41.7 15.1396L39.1 12.8105L22.35 27.8157L24.95 30.1448ZM11.9 34.0417C8.56667 33.8924 6.08333 33.2653 4.45 32.1605C2.81667 31.0556 2 29.458 2 27.3678C2 25.4268 2.89167 23.8516 4.675 22.6422C6.45833 21.4329 8.93333 20.7087 12.1 20.4698C13.4 20.3802 14.375 20.1936 15.025 19.9099C15.675 19.6263 16 19.2306 16 18.723C16 17.9466 15.5083 17.3643 14.525 16.9761C13.5417 16.5879 11.9167 16.3042 9.65 16.125L10 12.5417C13.4333 12.7806 15.9583 13.4002 17.575 14.4006C19.1917 15.4009 20 16.8417 20 18.723C20 20.3056 19.3583 21.5448 18.075 22.4407C16.7917 23.3365 14.9 23.874 12.4 24.0532C10.2667 24.2025 8.66667 24.5533 7.6 25.1058C6.53333 25.6582 6 26.4122 6 27.3678C6 28.4129 6.46667 29.1669 7.4 29.6297C8.33333 30.0926 9.9 30.3688 12.1 30.4584L11.9 34.0417ZM25.9 34.3552L17.65 26.9646L36.75 9.85421C37.4167 9.25699 38.2083 8.95837 39.125 8.95837C40.0417 8.95837 40.8333 9.25699 41.5 9.85421L45 12.9896C45.6667 13.5868 46 14.296 46 15.1172C46 15.9384 45.6667 16.6476 45 17.2448L25.9 34.3552ZM17.95 35.8334C17.3833 35.9528 16.8833 35.8184 16.45 35.4303C16.0167 35.0421 15.8667 34.5941 16 34.0865L17.65 26.9646L25.9 34.3552L17.95 35.8334Z" fill="#1C1B1F"/>
</g>
</g>
</svg>
