<svg xmlns="http://www.w3.org/2000/svg" enable-background="new 0 0 24 24" viewBox="0 0 24 24" id="unpin"><g><path fill="#d2cdd3" d="M21,11.6l-3.8-2.5l4.4-4.4c0.4-0.4,0.4-1,0-1.4s-1-0.4-1.4,0L15.6,8l-1.1-0.7c0.9-1.5,0.8-3.6-0.6-4.9
		l-8.5,8.5c1.3,1.3,3.4,1.5,4.9,0.6l0.7,1.1l-4.7,4.7c-0.4,0.4-0.4,1,0,1.4C6.5,18.9,6.7,19,7,19s0.5-0.1,0.7-0.3l4.4-4.4l2.5,3.8
		c0.7,1.1,2.2,1.2,3.1,0.3l3.6-3.6C22.2,13.8,22.1,12.3,21,11.6z"></path><path fill="#262656" d="M6.9 12.7l.9 1.4c.2.3.5.4.8.4.2 0 .4-.1.6-.2.5-.3.6-.9.3-1.4l-.9-1.3 3.1-3.1 1.3.9c.5.3 1.1.2 1.4-.3.3-.5.2-1.1-.3-1.4l-1.4-1c.6-1.8.3-3.8-1.2-5.2-.4-.4-1-.4-1.4 0l-8.5 8.5c-.4.4-.4 1 0 1.4 1 1 2.3 1.5 3.5 1.5C5.8 13 6.4 12.9 6.9 12.7zM10.8 3.9c.5 1.1.3 2.5-.6 3.4l-2.8 2.8c-.9.9-2.3 1.1-3.4.6L10.8 3.9zM20.7 5.3c-.4-.4-1-.4-1.4 0l-14 14c-.4.4-.4 1 0 1.4C5.5 20.9 5.7 21 6 21s.5-.1.7-.3l3.3-3.3.8 1.2c.5.8 1.3 1.2 2.2 1.3.1 0 .2 0 .3 0 .8 0 1.6-.3 2.1-.9l1.1-1.1 2.1 2.1c.2.2.5.3.7.3s.5-.1.7-.3c.4-.4.4-1 0-1.4l-2.1-2.1 1.1-1.1c.6-.6 1-1.5.9-2.4-.1-.9-.6-1.7-1.3-2.2L17.4 10l3.3-3.3C21.1 6.3 21.1 5.7 20.7 5.3zM17.5 12.5c.3.2.4.4.4.7 0 .3-.1.6-.3.8L14 17.6c-.2.2-.5.3-.8.3-.3 0-.6-.2-.7-.4l-1-1.5 4.5-4.5L17.5 12.5z"></path></g></svg>